<svg id="Calque_1" data-name="Calque 1" xmlns="http://www.w3.org/2000/svg" xmlns:xlink="http://www.w3.org/1999/xlink" viewBox="0 0 80 80"><defs><style>.cls-1{fill:none;}.cls-2{clip-path:url(#clip-path);}</style><clipPath id="clip-path" transform="translate(0 0)"><rect class="cls-1" width="80" height="80"/></clipPath></defs><title>icocolor</title><g class="cls-2"><path d="M40,0A40,40,0,1,0,80,40,40,40,0,0,0,40,0m0,76A36,36,0,1,1,76,40,36,36,0,0,1,40,76" transform="translate(0 0)"/><path d="M67.06,38a2,2,0,0,0-2,2,25.06,25.06,0,0,1-50.12,0,2,2,0,0,0-4,0,29.06,29.06,0,0,0,58.12,0,2,2,0,0,0-2-2" transform="translate(0 0)"/><path d="M28.24,21.77c2.92,0,5.29,3.56,5.29,7.94s-2.37,7.94-5.29,7.94S23,34.09,23,29.71s2.37-7.94,5.29-7.94" transform="translate(0 0)"/><path d="M51.76,21.77c2.92,0,5.29,3.56,5.29,7.94s-2.37,7.94-5.29,7.94-5.29-3.56-5.29-7.94,2.37-7.94,5.29-7.94" transform="translate(0 0)"/></g></svg>