<svg width="50" height="67" viewBox="40 25 40 70" fill="none" xmlns="http://www.w3.org/2000/svg">
<path d="M79.6989 41.2848C78.326 41.9097 75.5781 43.1613 74.2049 43.786C73.8858 43.9312 73.6351 44.1939 73.5051 44.5193C73.3751 44.8447 73.3759 45.2077 73.5073 45.5325C73.6387 45.8573 73.8905 46.1189 74.2103 46.2628C74.5301 46.4066 74.8931 46.4216 75.2236 46.3046C76.6466 45.8017 79.4933 44.795 80.9156 44.2911C81.7621 43.9917 82.2362 43.0329 81.8809 42.1535C81.5257 41.2742 80.5159 40.9121 79.6989 41.2848Z" fill="#39B75D"/>
<path d="M59.3914 36.023C59.7421 36.0224 60.0791 35.8868 60.3324 35.6444C60.5857 35.402 60.7357 35.0715 60.7512 34.7215C60.8165 33.2151 60.9484 30.2013 61.015 28.6949C61.0542 27.7997 60.3415 27 59.3914 27C58.4413 27 57.7288 27.7997 57.768 28.6946C57.8344 30.201 57.9663 33.2148 58.0317 34.7212C58.047 35.0713 58.1969 35.402 58.4502 35.6445C58.7035 35.887 59.0406 36.0225 59.3914 36.023Z" fill="#39B75D"/>
<path d="M69.7598 38.303C70.6575 37.0906 72.4531 34.6652 73.351 33.4542C73.8847 32.7329 73.7422 31.6726 72.9543 31.1424C72.1665 30.6123 71.1294 30.8759 70.6597 31.6409C69.8709 32.9267 68.2932 35.4983 67.5054 36.7841C67.3215 37.0828 67.2602 37.4409 67.3344 37.7836C67.4086 38.1264 67.6125 38.4272 67.9035 38.6233C68.1945 38.8194 68.5501 38.8956 68.896 38.836C69.2419 38.7764 69.5514 38.5855 69.7598 38.3034V38.303Z" fill="#39B75D"/>
<path d="M50.1235 48.7551C50.1235 48.7551 50.5246 47.2575 50.6585 46.7579C51.905 42.1104 51.7187 38.071 50.1595 35.9511C49.5548 35.1304 48.8009 34.695 47.916 34.6591C47.4487 34.6406 46.2077 34.5884 45.4711 37.3301C45.2466 38.1715 42.2375 49.3897 39.9383 57.9565C39.9383 57.9565 42.0651 55.0331 42.7745 54.0578C44.8424 51.2127 46.54 48.7551 50.1235 48.7551Z" fill="#39B75D"/>
<path d="M58.2986 48.7551H66.9552C66.9552 48.7551 66.6066 48.004 66.271 47.4665C65.5976 46.3846 64.1724 44.322 62.7539 43.2435C61.2503 42.1005 59.581 41.4703 58.0937 42.3074C56.6304 43.1303 56.5923 44.6693 57.172 46.1603C57.3257 46.5534 58.0923 48.2893 58.2986 48.7551Z" fill="#39B75D"/>
<path d="M45.1138 57.859C46.6501 55.7475 47.8616 54.08 50.0278 53.7372C52.194 53.3945 53.8619 54.6058 55.9746 56.1393C56.1773 56.2863 57.6677 57.3704 59.5581 58.746H62.112C66.9291 58.746 70.7861 57.5195 72.4314 55.4666C73.0698 54.6721 73.2948 53.8309 73.1005 52.9677C72.998 52.5117 72.7267 51.3002 69.8851 51.3002H49.9731C48.0164 51.3002 46.868 52.7599 44.836 55.5538C43.3399 57.6094 40.4656 61.5549 38.9733 63.6137C38.3152 64.5214 37.8989 65.1679 38.0231 65.9451C38.082 66.3214 38.2586 66.6297 38.521 66.9226C38.5207 66.9223 43.4358 60.1661 45.1138 57.859Z" fill="#39B75D"/>
<path d="M43.9665 66.4526C45.5028 64.3411 46.7154 62.6748 48.8797 62.332C51.044 61.9892 52.715 63.2005 54.8276 64.7352C55.9793 65.5711 58.281 67.2417 59.4333 68.0765C61.2485 69.3946 61.9872 70.7213 62.1987 71.8685C63.8875 72.4016 65.4139 72.5271 66.6375 72.1929C67.6214 71.9229 68.2981 71.3755 68.6489 70.5636C68.8352 70.1347 69.3266 68.9974 67.0287 67.3267C64.9237 65.7963 56.4719 59.6489 54.4768 58.1982C52.5004 56.7603 51.5013 56.0801 50.4259 56.2499C49.3504 56.4197 48.6117 57.3789 47.1745 59.3546C45.0951 62.2122 41.0563 67.7597 38.9806 70.6213C38.3181 71.5343 37.8975 72.183 38.0217 72.9634C38.0817 73.3412 38.2572 73.6481 38.5207 73.9408C38.5207 73.9408 42.5751 68.3672 43.9665 66.4526Z" fill="#39B75D"/>
<path d="M71.5435 59.3366C69.3501 60.4925 66.429 61.1712 63.0356 61.274C65.61 63.1472 68.0171 64.8984 68.5269 65.2685C71.9624 67.7616 71.5441 70.2882 70.9883 71.5735C70.3335 73.0854 69.0282 74.1782 67.31 74.6469C66.6409 74.8308 65.9219 74.9202 65.1635 74.9202C64.1316 74.9202 63.0268 74.7526 61.873 74.4249C61.2912 75.7397 60.2387 76.7192 58.8255 77.258C56.5199 78.1361 53.4169 77.7707 50.0893 76.2284C49.7863 76.0843 49.5525 75.8265 49.4387 75.5111C49.3248 75.1957 49.3402 74.8482 49.4815 74.5441C49.6227 74.2399 49.8784 74.0038 50.193 73.8869C50.5075 73.7701 50.8556 73.7819 51.1614 73.9199C53.8211 75.1531 56.2857 75.5013 57.9179 74.8799C58.7012 74.582 59.2522 74.0744 59.5565 73.3724C59.7418 72.9435 60.2343 71.8043 57.9353 70.1355C56.7847 69.2996 53.3308 66.7942 53.3308 66.7942C51.3521 65.3574 50.3541 64.675 49.2787 64.8459C48.2033 65.0168 47.4654 65.9727 46.0278 67.9492C44.2388 70.4079 40.7156 75.2514 38.8715 77.7888C38.341 78.519 38.228 78.999 38.2298 79.5247C38.2353 80.2878 38.608 80.9321 39.1037 81.436C39.1072 81.4416 39.1112 81.4468 39.1156 81.4517C41.6575 83.5592 47.5881 87.6875 51.8037 90.3475C54.0754 91.7821 56.9715 93 60.9212 93C70.1084 93 77.5099 85.4577 77.4533 76.2831C77.439 73.8386 76.8692 71.532 75.9333 69.436C75.4626 68.3813 71.9444 60.202 71.5435 59.3366Z" fill="#39B75D"/>
</svg>
