<svg xmlns="http://www.w3.org/2000/svg" xmlns:xlink="http://www.w3.org/1999/xlink" width="83" height="28" viewBox="0 0 83 28">
  <defs>
    <clipPath id="clip-custom_1">
      <rect width="83" height="28"/>
    </clipPath>
  </defs>
  <g id="custom_1" data-name="custom – 1" clip-path="url(#clip-custom_1)">
    <path id="Path_1" data-name="Path 1" d="M6.3-3.53H15.63V0H1.9V-21.328H6.3Zm28.433-6.65a12.875,12.875,0,0,1-1.113,5.522A8.384,8.384,0,0,1,30.432-1,8.813,8.813,0,0,1,25.679.293,8.873,8.873,0,0,1,20.947-.981a8.466,8.466,0,0,1-3.223-3.64,12.507,12.507,0,0,1-1.157-5.442v-1.055A12.808,12.808,0,0,1,17.7-16.663a8.453,8.453,0,0,1,3.208-3.677,8.824,8.824,0,0,1,4.739-1.282,8.824,8.824,0,0,1,4.739,1.282A8.453,8.453,0,0,1,33.6-16.663a12.771,12.771,0,0,1,1.135,5.53Zm-4.453-.967a8.975,8.975,0,0,0-1.2-5.1,3.914,3.914,0,0,0-3.428-1.743,3.916,3.916,0,0,0-3.413,1.721,8.873,8.873,0,0,0-1.216,5.046v1.04a9.088,9.088,0,0,0,1.2,5.068,3.9,3.9,0,0,0,3.457,1.8,3.869,3.869,0,0,0,3.4-1.736,9.035,9.035,0,0,0,1.2-5.061ZM54.8-2.7a7.628,7.628,0,0,1-3.354,2.2,14.048,14.048,0,0,1-4.8.784A9.518,9.518,0,0,1,41.785-.916a8.06,8.06,0,0,1-3.223-3.508A12.347,12.347,0,0,1,37.4-9.829v-1.45a13.113,13.113,0,0,1,1.077-5.53,7.965,7.965,0,0,1,3.105-3.574,8.945,8.945,0,0,1,4.753-1.238,8.908,8.908,0,0,1,5.933,1.809A7.731,7.731,0,0,1,54.8-14.546H50.522a4.253,4.253,0,0,0-1.3-2.681,4.14,4.14,0,0,0-2.761-.85,3.9,3.9,0,0,0-3.413,1.685,8.858,8.858,0,0,0-1.187,5.01v1.362A8.433,8.433,0,0,0,43.14-4.951a4.364,4.364,0,0,0,3.735,1.714,4.874,4.874,0,0,0,3.53-1.055V-7.969h-4v-3.237H54.8Zm21.079-7.485a12.875,12.875,0,0,1-1.113,5.522A8.384,8.384,0,0,1,71.58-1,8.813,8.813,0,0,1,66.826.293,8.873,8.873,0,0,1,62.095-.981a8.466,8.466,0,0,1-3.223-3.64,12.507,12.507,0,0,1-1.157-5.442v-1.055a12.808,12.808,0,0,1,1.135-5.544,8.453,8.453,0,0,1,3.208-3.677A8.824,8.824,0,0,1,66.8-21.621a8.824,8.824,0,0,1,4.739,1.282,8.453,8.453,0,0,1,3.208,3.677,12.771,12.771,0,0,1,1.135,5.53Zm-4.453-.967a8.975,8.975,0,0,0-1.2-5.1A3.914,3.914,0,0,0,66.8-17.988a3.916,3.916,0,0,0-3.413,1.721,8.873,8.873,0,0,0-1.216,5.046v1.04a9.088,9.088,0,0,0,1.2,5.068,3.9,3.9,0,0,0,3.457,1.8,3.869,3.869,0,0,0,3.4-1.736,9.035,9.035,0,0,0,1.2-5.061Z" transform="translate(3 25)"/>
  </g>
</svg>
